<?xml version="1.0" encoding="UTF-8"?>
<svg width="24" height="24" viewBox="0 0 24 24" fill="none" xmlns="http://www.w3.org/2000/svg">
  <path d="M12 3C7.02944 3 3 7.02944 3 12C3 16.9706 7.02944 21 12 21C16.9706 21 21 16.9706 21 12C21 7.02944 16.9706 3 12 3Z" stroke="#4299E1" stroke-width="2" stroke-linecap="round" stroke-linejoin="round"/>
  <path d="M12 8C9.79086 8 8 9.79086 8 12C8 14.2091 9.79086 16 12 16C14.2091 16 16 14.2091 16 12C16 9.79086 14.2091 8 12 8Z" stroke="#4299E1" stroke-width="2" stroke-linecap="round" stroke-linejoin="round"/>
  <path d="M12 3V8M21 12H16M12 16V21M8 12H3" stroke="#4299E1" stroke-width="2" stroke-linecap="round" stroke-linejoin="round"/>
</svg> 